# xmcd
#
# Track frame offsets:
#	150
#	18204
#	35246
#	53236
#	72599
#	88996
#	105582
#	120766
#	140702
#	157749
#
# Disc length: 2331 seconds
#
# Revision: 1
# Processed by: cddbd v1.5.2PL0 Copyright (c) Steve Scherf et al.
# Submitted via: audiograbber 1.83.01
#
DISCID=8309190a
DTITLE=SESTA JUDZE - KALENDARS
DYEAR=2008
DGENRE=Country
TTITLE0=Es Ticu
TTITLE1=Klusesu
TTITLE2=Kalendars
TTITLE3=Perdevejs
TTITLE4=Uz Kurieni Tu Ej
TTITLE5=Rabarberu Vins
TTITLE6=Es Ludzos
TTITLE7=Vel Mirkli Lauj
TTITLE8=Laiks Dzivot
TTITLE9=1920
EXTD=
EXTT0=
EXTT1=
EXTT2=
EXTT3=
EXTT4=
EXTT5=
EXTT6=
EXTT7=
EXTT8=
EXTT9=
PLAYORDER=
